<?xml version="1.0" encoding="UTF-8"?>
<svg width="24px" height="24px" viewBox="0 0 24 24" version="1.1" xmlns="http://www.w3.org/2000/svg" xmlns:xlink="http://www.w3.org/1999/xlink">
    <g stroke="none" stroke-width="1" fill="none" fill-rule="evenodd">
        <g transform="translate(3.000000, 1.000000)" fill="#FF0000" fill-rule="nonzero">
            <path d="M14,0 L2,0 C0.9,0 0,0.9 0,2 L0,20 C0,21.1 0.9,22 2,22 L14,22 C15.1,22 16,21.1 16,20 L16,2 C16,0.9 15.1,0 14,0 Z M14,20 L2,20 L2,2 L14,2 L14,20 Z M4,4 L12,4 L12,6 L4,6 L4,4 Z M4,8 L12,8 L12,10 L4,10 L4,8 Z M4,12 L8,12 L8,14 L4,14 L4,12 Z"/>
        </g>
    </g>
</svg>
